<?xml version="1.0" encoding="UTF-8" standalone="no"?>
<!-- Created with Inkscape (http://www.inkscape.org/) -->

<svg
   xmlns:dc="http://purl.org/dc/elements/1.1/"
   xmlns:cc="http://creativecommons.org/ns#"
   xmlns:rdf="http://www.w3.org/1999/02/22-rdf-syntax-ns#"
   xmlns:svg="http://www.w3.org/2000/svg"
   xmlns="http://www.w3.org/2000/svg"
   xmlns:sodipodi="http://sodipodi.sourceforge.net/DTD/sodipodi-0.dtd"
   xmlns:inkscape="http://www.inkscape.org/namespaces/inkscape"
   width="158.69485mm"
   height="158.235mm"
   viewBox="0 0 158.69485 158.235"
   version="1.1"
   id="svg8"
   inkscape:version="0.92.3 (2405546, 2018-03-11)">
  <defs
     id="defs2" />
  <sodipodi:namedview
     id="base"
     pagecolor="#ffffff"
     bordercolor="#666666"
     borderopacity="1.0"
     inkscape:pageopacity="0.0"
     inkscape:pageshadow="2"
     inkscape:zoom="0.98994949"
     inkscape:cx="-22.185575"
     inkscape:cy="88.101471"
     inkscape:document-units="mm"
     inkscape:current-layer="layer1"
     showgrid="false"
     inkscape:window-width="3840"
     inkscape:window-height="2104"
     inkscape:window-x="-16"
     inkscape:window-y="-16"
     inkscape:window-maximized="1">
    <inkscape:grid
       type="xygrid"
       id="grid168"
       originx="-22.517671"
       originy="-62.356082" />
  </sodipodi:namedview>
  <metadata
     id="metadata5">
    <rdf:RDF>
      <cc:Work
         rdf:about="">
        <dc:format>image/svg+xml</dc:format>
        <dc:type
           rdf:resource="http://purl.org/dc/dcmitype/StillImage" />
        <dc:title></dc:title>
      </cc:Work>
    </rdf:RDF>
  </metadata>
  <g
     inkscape:label="Layer 1"
     inkscape:groupmode="layer"
     id="layer1"
     transform="translate(-22.517671,-76.408924)">
    <path
       style="fill:#000000;fill-opacity:1;stroke:#000000;stroke-width:12.1238451;stroke-linecap:round;stroke-linejoin:round;stroke-miterlimit:4;stroke-dasharray:none"
       d="m 304.76367,294.85156 v 222.78711 a 106.71798,106.71798 0 0 1 138.3711,-19.3164 106.71798,106.71798 0 0 1 22.10546,19.28125 V 294.85156 Z m 160.47656,363.1211 a 106.71798,106.71798 0 0 1 -137.12695,20.13476 l -2.48242,-1.61328 a 106.71798,106.71798 0 0 1 -20.86719,-18.50781 v 222.79492 h 160.47656 z"
       transform="scale(0.26458333)"
       id="rect170"
       inkscape:connector-curvature="0" />
    <path
       style="fill:#000000;fill-opacity:1;stroke:#000000;stroke-width:3.20776725;stroke-linecap:round;stroke-linejoin:round;stroke-miterlimit:4;stroke-dasharray:none"
       d="m 158.37889,98.384089 -51.03742,29.466461 a 28.235801,28.235801 0 0 1 15.509,8.78493 28.235801,28.235801 0 0 1 5.70689,27.99423 l 51.05134,-29.4745 z M 75.1741,146.42239 24.121496,175.89763 45.351311,212.66875 96.400754,183.19534 A 28.235801,28.235801 0 0 1 81.143123,174.7062 l -0.523954,-0.58229 A 28.235801,28.235801 0 0 1 75.1741,146.42239 Z"
       id="rect170-7"
       inkscape:connector-curvature="0" />
    <path
       style="fill:#000000;fill-opacity:1;stroke:#000000;stroke-width:3.20776725;stroke-linecap:round;stroke-linejoin:round;stroke-miterlimit:4;stroke-dasharray:none"
       d="M 45.351317,98.384088 24.1215,135.15521 75.150687,164.61692 a 28.235801,28.235801 0 0 1 -0.07751,-18.00531 28.235801,28.235801 0 0 1 21.330741,-18.75229 z m 83.212373,48.042692 a 28.235801,28.235801 0 0 1 0.21342,17.64201 28.235801,28.235801 0 0 1 -21.44513,19.12801 l 51.04691,29.47195 21.22981,-36.77112 z"
       id="rect170-2"
       inkscape:connector-curvature="0" />
    <path
       style="fill:#000000;fill-opacity:1;stroke:#000000;stroke-width:10.0724411;stroke-linecap:round;stroke-linejoin:round;stroke-miterlimit:4;stroke-dasharray:none"
       d="M 387.74219,363.54492 A 224.28572,224.28572 0 0 0 197.76562,464.33398 224.28572,224.28572 0 0 0 260.22461,774.1875 l 5.2168,3.38867 A 224.28572,224.28572 0 0 0 573.92773,708.6875 224.28572,224.28572 0 0 0 507.17969,399.72852 224.28572,224.28572 0 0 0 387.74219,363.54492 Z m -1.43555,117.56055 a 106.71799,106.71799 0 0 1 56.82813,17.2168 106.71799,106.71799 0 0 1 31.75976,147.00585 106.71799,106.71799 0 0 1 -146.78125,32.7793 l -2.48242,-1.61328 A 106.71799,106.71799 0 0 1 295.91211,529.0625 106.71799,106.71799 0 0 1 386.30664,481.10547 Z"
       transform="scale(0.26458333)"
       id="path10"
       inkscape:connector-curvature="0" />
  </g>
</svg>
