<?xml version="1.0" encoding="UTF-8" standalone="no"?>
<!-- Created with Inkscape (http://www.inkscape.org/) -->

<svg
   xmlns:dc="http://purl.org/dc/elements/1.1/"
   xmlns:cc="http://creativecommons.org/ns#"
   xmlns:rdf="http://www.w3.org/1999/02/22-rdf-syntax-ns#"
   xmlns:svg="http://www.w3.org/2000/svg"
   xmlns="http://www.w3.org/2000/svg"
   xmlns:sodipodi="http://sodipodi.sourceforge.net/DTD/sodipodi-0.dtd"
   xmlns:inkscape="http://www.inkscape.org/namespaces/inkscape"
   width="186.58459mm"
   height="186.03268mm"
   viewBox="0 0 186.58459 186.03268"
   version="1.1"
   id="svg8"
   inkscape:version="0.92.3 (2405546, 2018-03-11)">
  <defs
     id="defs2">
    <inkscape:path-effect
       effect="mirror_symmetry"
       start_point="185.07759,87.585662"
       end_point="185.07759,242.51756"
       center_point="185.07759,165.05161"
       id="path-effect1156"
       is_visible="true"
       mode="free"
       discard_orig_path="false"
       fuse_paths="true"
       oposite_fuse="false" />
    <filter
       style="color-interpolation-filters:sRGB;"
       inkscape:label="Blur"
       id="filter328">
      <feGaussianBlur
         stdDeviation="2 2"
         result="fbSourceGraphic"
         id="feGaussianBlur326" />
      <feColorMatrix
         result="fbSourceGraphicAlpha"
         in="fbSourceGraphic"
         values="0 0 0 -1 0 0 0 0 -1 0 0 0 0 -1 0 0 0 0 1 0"
         id="feColorMatrix1169" />
      <feGaussianBlur
         id="feGaussianBlur1171"
         stdDeviation="2 2"
         result="blur"
         in="fbSourceGraphic" />
    </filter>
    <filter
       style="color-interpolation-filters:sRGB"
       inkscape:label="Blur"
       id="filter332">
      <feGaussianBlur
         stdDeviation="2 2"
         result="blur"
         id="feGaussianBlur330" />
    </filter>
    <filter
       style="color-interpolation-filters:sRGB"
       inkscape:label="Blur"
       id="filter336">
      <feGaussianBlur
         stdDeviation="2 2"
         result="blur"
         id="feGaussianBlur334" />
    </filter>
    <filter
       style="color-interpolation-filters:sRGB"
       inkscape:label="Blur"
       id="filter340">
      <feGaussianBlur
         stdDeviation="2 2"
         result="blur"
         id="feGaussianBlur338" />
    </filter>
  </defs>
  <sodipodi:namedview
     id="base"
     pagecolor="#ffffff"
     bordercolor="#666666"
     borderopacity="1.0"
     inkscape:pageopacity="0.0"
     inkscape:pageshadow="2"
     inkscape:zoom="1.4"
     inkscape:cx="483.71673"
     inkscape:cy="260.33499"
     inkscape:document-units="mm"
     inkscape:current-layer="layer3"
     showgrid="false"
     inkscape:window-width="3840"
     inkscape:window-height="2104"
     inkscape:window-x="-16"
     inkscape:window-y="-16"
     inkscape:window-maximized="1">
    <inkscape:grid
       type="xygrid"
       id="grid168"
       originx="-15.085207"
       originy="-35.835524" />
  </sodipodi:namedview>
  <metadata
     id="metadata5">
    <rdf:RDF>
      <cc:Work
         rdf:about="">
        <dc:format>image/svg+xml</dc:format>
        <dc:type
           rdf:resource="http://purl.org/dc/dcmitype/StillImage" />
        <dc:title></dc:title>
      </cc:Work>
    </rdf:RDF>
  </metadata>
  <g
     inkscape:groupmode="layer"
     id="layer3"
     inkscape:label="Layer 2"
     transform="translate(7.4324632,1.2771208)"
     style="display:inline">
    <path
       style="fill:#000000;fill-opacity:0.40000001;stroke:#000000;stroke-width:12.1238451;stroke-linecap:round;stroke-linejoin:round;stroke-miterlimit:4;stroke-dasharray:none;stroke-opacity:0.03167419;filter:url(#filter328)"
       d="m 276.30664,70.476562 v 83.724608 a 224.28572,224.28572 0 0 0 -60.96289,35.06641 l -72.39453,-41.79688 -80.238282,138.97657 72.529292,41.875 a 224.28572,224.28572 0 0 0 0.0527,70.20703 l -72.582032,41.90625 80.238282,138.97656 72.53906,-41.88086 a 224.28572,224.28572 0 0 0 16.2793,12.28125 l 5.2168,3.38867 a 224.28572,224.28572 0 0 0 39.32226,19.63672 v 83.56836 h 160.4766 v -83.77148 a 224.28572,224.28572 0 0 0 60.76758,-35.13282 l 72.58984,41.91016 80.23829,-138.97656 -72.44141,-41.82422 a 224.28572,224.28572 0 0 0 -0.0957,-70.28516 l 72.53711,-41.8789 -80.23829,-138.97657 -72.58398,41.90625 A 224.28572,224.28572 0 0 0 478.72266,175.35352 224.28572,224.28572 0 0 0 436.7832,154.10742 V 70.476562 Z m 84.46094,186.435548 a 106.71799,106.71799 0 0 1 2.71094,0.16992 106.71798,106.71798 0 0 1 7.74609,0.75977 106.71799,106.71799 0 0 1 3.13086,0.51172 106.71798,106.71798 0 0 1 4.76953,0.95507 106.71799,106.71799 0 0 1 6.81836,1.69922 106.71798,106.71798 0 0 1 3.47266,1.06641 106.71799,106.71799 0 0 1 6.61523,2.37109 106.71798,106.71798 0 0 1 3.37305,1.41602 106.71799,106.71799 0 0 1 6.27343,2.98633 106.71798,106.71798 0 0 1 3.32618,1.80664 106.71799,106.71799 0 0 1 6.82617,4.13281 106.71798,106.71798 0 0 1 3.55078,2.58398 106.71799,106.71799 0 0 1 4.55469,3.42383 106.71798,106.71798 0 0 1 6.25,5.58594 106.71799,106.71799 0 0 1 1.26562,1.16406 106.71798,106.71798 0 0 1 5.12891,5.4668 106.71799,106.71799 0 0 1 0.54687,0.59375 106.71799,106.71799 0 0 1 3.52539,4.34375 106.71799,106.71799 0 0 1 2.9043,3.86328 106.71799,106.71799 0 0 1 3.43555,5.22656 106.71799,106.71799 0 0 1 2.1582,3.5625 106.71799,106.71799 0 0 1 3.17969,6.08203 106.71799,106.71799 0 0 1 1.54687,3.25 106.71799,106.71799 0 0 1 2.75977,6.87696 106.71799,106.71799 0 0 1 0.86523,2.40625 106.71799,106.71799 0 0 1 2.69727,9.38867 106.71799,106.71799 0 0 1 0.26953,1.08008 106.71799,106.71799 0 0 1 1.63086,8.97461 106.71799,106.71799 0 0 1 0.19727,1.35937 106.71799,106.71799 0 0 1 0.74414,9.07813 106.71799,106.71799 0 0 1 0.0605,1.3789 106.71799,106.71799 0 0 1 -0.17773,9.57813 106.71799,106.71799 0 0 1 -0.0488,0.91406 106.71799,106.71799 0 0 1 -1.17969,9.91211 106.71799,106.71799 0 0 1 -0.0859,0.54102 106.71799,106.71799 0 0 1 -2.24805,10.12695 106.71799,106.71799 0 0 1 -0.043,0.16406 106.71799,106.71799 0 0 1 -1.88867,6.13477 l 0.041,-0.0234 a 106.71799,106.71799 0 0 1 -0.34375,0.92773 106.71799,106.71799 0 0 1 -12.21484,24.3418 106.71799,106.71799 0 0 1 -2.13867,3.00195 106.71799,106.71799 0 0 1 -4.40039,5.68555 106.71799,106.71799 0 0 1 -1.61133,1.83984 106.71798,106.71798 0 0 1 -7.31641,7.57032 106.71799,106.71799 0 0 1 -0.16015,0.15039 106.71798,106.71798 0 0 1 -7.91602,6.70117 106.71799,106.71799 0 0 1 -0.27734,0.21289 106.71799,106.71799 0 0 1 -0.0137,0.01 106.71798,106.71798 0 0 1 -8.41992,5.79102 106.71799,106.71799 0 0 1 -0.125,0.0781 106.71799,106.71799 0 0 1 -1.73047,0.97265 106.71798,106.71798 0 0 1 -7.35546,4.04297 106.71798,106.71798 0 0 1 -0.0215,0.0117 106.71799,106.71799 0 0 1 -0.0293,0.0137 106.71799,106.71799 0 0 1 -3.57617,1.5625 106.71798,106.71798 0 0 1 -6.02929,2.56641 106.71799,106.71799 0 0 1 -5.4668,1.76562 106.71798,106.71798 0 0 1 -4.52344,1.41211 106.71799,106.71799 0 0 1 -0.3125,0.0801 106.71799,106.71799 0 0 1 -2.20117,0.51172 106.71798,106.71798 0 0 1 -7.76367,1.59375 106.71799,106.71799 0 0 1 -1.80078,0.27539 106.71798,106.71798 0 0 1 -8.59375,0.88281 106.71799,106.71799 0 0 1 -2.23633,0.11524 106.71798,106.71798 0 0 1 -8.19922,0.0215 106.71799,106.71799 0 0 1 -2.69727,-0.13086 106.71798,106.71798 0 0 1 -7.68164,-0.75 106.71799,106.71799 0 0 1 -3.16211,-0.47265 106.71798,106.71798 0 0 1 -4.5039,-0.9004 106.71799,106.71799 0 0 1 -7.98047,-1.98242 106.71798,106.71798 0 0 1 -2.41602,-0.74218 106.71799,106.71799 0 0 1 -7.57226,-2.70704 106.71798,106.71798 0 0 1 -2.52149,-1.05859 106.71799,106.71799 0 0 1 -7.07031,-3.35742 106.71798,106.71798 0 0 1 -2.59961,-1.41211 106.71799,106.71799 0 0 1 -15.88867,-10.78125 106.71798,106.71798 0 0 1 -12.28516,-12.04883 106.71798,106.71798 0 0 1 -0.008,-0.008 106.71799,106.71799 0 0 1 -1.28516,-1.4336 106.71799,106.71799 0 0 1 -3.52539,-4.4707 106.71799,106.71799 0 0 1 -2.79492,-3.82812 106.71799,106.71799 0 0 1 -3.39453,-5.32227 106.71799,106.71799 0 0 1 -2.0857,-3.55675 106.71799,106.71799 0 0 1 -3.12109,-6.17969 106.71799,106.71799 0 0 1 -1.4668,-3.1875 106.71799,106.71799 0 0 1 -2.71679,-7.05273 106.71799,106.71799 0 0 1 -0.70313,-2.04688 106.71799,106.71799 0 0 1 -1.08594,-3.80078 106.71799,106.71799 0 0 1 -1.3164,-4.79883 106.71799,106.71799 0 0 1 -0.43164,-1.83789 106.71799,106.71799 0 0 1 -0.31446,-1.74023 106.71799,106.71799 0 0 1 -1.22461,-7.23438 106.71799,106.71799 0 0 1 -0.21875,-1.66406 106.71799,106.71799 0 0 1 -0.6289,-9.30273 106.71799,106.71799 0 0 1 -0.0352,-1.14063 106.71799,106.71799 0 0 1 0.31836,-9.83398 106.71799,106.71799 0 0 1 0.0449,-0.64258 106.71799,106.71799 0 0 1 1.35938,-10.20313 106.71799,106.71799 0 0 1 0.0352,-0.21484 106.71799,106.71799 0 0 1 3.95118,-15.08594 l -0.1211,0.0703 a 106.71799,106.71799 0 0 1 0.8457,-2.1875 106.71799,106.71799 0 0 1 12.69141,-24.44336 106.71799,106.71799 0 0 1 1.98828,-2.71289 106.71799,106.71799 0 0 1 4.69922,-5.89649 106.71799,106.71799 0 0 1 0.53711,-0.59961 106.71798,106.71798 0 0 1 0.0195,-0.0215 106.71798,106.71798 0 0 1 7.35742,-7.60938 106.71799,106.71799 0 0 1 0.11133,-0.10156 106.71798,106.71798 0 0 1 7.98633,-6.75781 106.71799,106.71799 0 0 1 0.24414,-0.18164 106.71798,106.71798 0 0 1 8.47656,-5.82813 106.71799,106.71799 0 0 1 0.44922,-0.26758 106.71798,106.71798 0 0 1 5.47461,-3.00781 106.71799,106.71799 0 0 1 3.57617,-1.94531 106.71799,106.71799 0 0 1 0.4668,-0.21875 106.71798,106.71798 0 0 1 1.80469,-0.76758 106.71799,106.71799 0 0 1 7.70508,-3.24023 106.71799,106.71799 0 0 1 0.2832,-0.0996 106.71799,106.71799 0 0 1 11.27344,-3.36133 106.71798,106.71798 0 0 1 8.29687,-1.70313 106.71799,106.71799 0 0 1 1.76758,-0.24414 106.71798,106.71798 0 0 1 8.67773,-0.89258 106.71799,106.71799 0 0 1 2.22852,-0.084 106.71798,106.71798 0 0 1 8.26172,-0.0195 z"
       transform="matrix(0.26458333,0,0,0.26458333,-8.4760092,-4.4213211)"
       id="rect170-9"
       inkscape:connector-curvature="0" />
  </g>
  <g
     inkscape:label="Layer 1"
     inkscape:groupmode="layer"
     id="layer1"
     transform="translate(-15.085208,-75.131803)"
     style="display:none">
    <path
       inkscape:connector-curvature="0"
       d="m 109.10256,108.80999 a 59.342263,59.342263 0 0 0 -50.264633,26.6671 59.342263,59.342263 0 0 0 16.525607,81.98208 l 1.380278,0.89658 a 59.342263,59.342263 0 0 0 81.620338,-18.22679 59.342263,59.342263 0 0 0 -17.66042,-81.7454 59.342263,59.342263 0 0 0 -31.60117,-9.57357 z m -0.37983,31.10456 a 28.235801,28.235801 0 0 1 15.03578,4.55528 28.235801,28.235801 0 0 1 8.4031,38.89529 28.235801,28.235801 0 0 1 -38.835862,8.67286 l -0.65681,-0.42685 A 28.235801,28.235801 0 0 1 84.805852,152.60318 28.235801,28.235801 0 0 1 108.72273,139.91455 Z M 51.863717,111.00581 30.6339,147.77693 81.663087,177.23864 a 28.235801,28.235801 0 0 1 -0.07751,-18.00531 28.235801,28.235801 0 0 1 21.330743,-18.75229 z M 135.0761,159.0485 a 28.235801,28.235801 0 0 1 0.21342,17.64201 28.235801,28.235801 0 0 1 -21.44513,19.12801 l 51.04691,29.47195 21.22981,-36.77112 z m 29.8152,-48.04269 -51.03742,29.46646 a 28.235801,28.235801 0 0 1 15.509,8.78493 28.235801,28.235801 0 0 1 5.70689,27.99423 l 51.05134,-29.4745 z m -83.204796,48.0383 -51.052604,29.47524 21.229815,36.77112 51.049445,-29.47341 a 28.235801,28.235801 0 0 1 -15.257633,-8.48914 l -0.523954,-0.58229 a 28.235801,28.235801 0 0 1 -5.445069,-27.70152 z m 5.461295,-68.40958 v 58.94575 a 28.235799,28.235799 0 0 1 36.610681,-5.11079 28.235799,28.235799 0 0 1 5.84873,5.10149 V 90.63453 Z m 42.459411,96.07579 a 28.235799,28.235799 0 0 1 -36.281491,5.32732 l -0.65681,-0.42685 a 28.235799,28.235799 0 0 1 -5.52111,-4.89685 v 58.94782 h 42.459411 z"
       style="fill:#ffffff;fill-opacity:1;stroke:#000000;stroke-width:0;stroke-linecap:round;stroke-linejoin:round;stroke-miterlimit:4;stroke-dasharray:none"
       id="path10" />
  </g>
</svg>
